<?xml version="1.0" encoding="utf-8"?>
<!-- Generator: Adobe Illustrator 26.4.1, SVG Export Plug-In . SVG Version: 6.00 Build 0)  -->
<svg version="1.1" id="Layer_1" xmlns="http://www.w3.org/2000/svg" xmlns:xlink="http://www.w3.org/1999/xlink" x="0px" y="0px"
	 viewBox="0 0 525 145" style="enable-background:new 0 0 525 145;" xml:space="preserve">
<style type="text/css">
	.st0{fill:#2CC0D1;}
	.st1{fill:#475BA9;}
	.st2{fill:#485CA9;}
	.st3{fill:#2BC0D1;}
	.st4{fill:#2DC0D1;}
	.st5{fill:#2EC0D1;}
	.st6{fill:#485BA9;}
</style>
<g>
	<path class="st0" d="M341.52,38.25c14.39-13.91,35.67-10.1,46.01-0.82c9.25,8.3,12.54,19.01,11.86,30.97
		c-0.72,12.62-5.71,23.2-17.05,29.81c-12.03,7.02-28.09,7-38.75-3.6c-0.32-0.32-0.72-0.54-1.66-1.23c0,8.91,0,17.19,0,25.48
		c0,8.39,0,8.39-8.34,8.39c-8.03,0-8.03,0-8.03-7.93c0-28.42,0.04-56.84-0.07-85.26c-0.01-3.01,0.69-4.46,3.88-3.95
		c0.73,0.12,1.49,0.01,2.24,0.02c2.87,0.04,6.18-0.8,8.48,0.36C342.85,31.87,340.27,35.71,341.52,38.25z M341.8,65.75
		c-0.69,18.53,17.46,27.41,31.05,19.55c7.64-4.42,10.12-11.76,10.1-19.99c-0.02-8.35-3.15-15.4-10.8-19.6
		C359.5,38.78,341.1,46.78,341.8,65.75z"/>
	<path class="st1" d="M67.27,38.27c6.49-5.8,13.4-8,21.03-8.73c17.93-1.71,31.17,8.97,32.01,26.99c0.66,14.18,0.25,28.41,0.42,42.62
		c0.03,2.22-0.83,2.74-2.86,2.67c-3.61-0.13-7.24-0.19-10.85,0.02c-2.56,0.15-3.12-0.84-3.1-3.21c0.1-11.72,0.07-23.43,0.02-35.15
		c-0.01-1.98-0.04-4.02-0.5-5.93c-2.08-8.78-7.94-12.89-17.66-12.55c-9.41,0.32-16.3,6.27-17.97,15.43
		c-0.81,4.46-0.51,8.95-0.53,13.43c-0.04,8.23-0.12,16.46,0.05,24.68c0.05,2.66-0.77,3.46-3.37,3.3c-3.48-0.21-6.99-0.14-10.48-0.02
		c-2.02,0.07-2.86-0.44-2.85-2.67c0.06-31.41,0.06-62.82,0.01-94.23c0-1.98,0.68-2.61,2.61-2.55c3.36,0.12,6.75,0.23,10.1-0.03
		c3.06-0.24,4.05,0.67,3.99,3.85C67.14,16.5,67.27,26.82,67.27,38.27z"/>
	<path class="st2" d="M261.31,61.51c8.98-9.5,18.01-18.95,26.89-28.54c1.77-1.92,3.54-2.74,6.13-2.64
		c4.96,0.19,9.93,0.06,15.76,0.06c-1.82,1.92-3.11,3.3-4.42,4.67c-7.28,7.53-14.48,15.13-21.9,22.52c-2.07,2.06-2.33,3.32-0.43,5.74
		c8.93,11.37,17.63,22.91,26.41,34.39c0.82,1.08,1.6,2.19,2.93,4.01c-6.77,0-12.9,0.05-19.03-0.04c-1.23-0.02-1.71-1.37-2.4-2.2
		c-6.57-7.83-13.09-15.69-19.65-23.54c-0.79-0.94-1.65-1.83-2.6-2.89c-2.6,2.97-5.02,5.82-7.54,8.56c-1.06,1.15-1.05,2.45-1.05,3.82
		c0.01,4.61-0.08,9.23,0.04,13.84c0.05,1.99-0.65,2.61-2.59,2.53c-3.36-0.13-6.75-0.24-10.1,0.03c-3.02,0.24-3.73-0.83-3.72-3.75
		c0.11-27.18,0.06-54.36,0.06-81.53c0-3.86,0.08-7.73-0.02-11.59c-0.05-1.91,0.55-2.69,2.55-2.61c3.49,0.13,7,0.2,10.48-0.02
		c2.61-0.16,3.38,0.66,3.36,3.31c-0.13,14.34-0.06,28.67-0.06,43.01c0,4.19,0,8.37,0,12.56C260.71,61.31,261.01,61.41,261.31,61.51z
		"/>
	<path class="st3" d="M524.06,66.32c0.05,20.79-14.77,36.87-37.64,36.75c-22.37-0.11-37.44-15.76-37.32-37.55
		c0.13-21.23,15.74-36.3,37.72-36.25C508.86,29.31,524.1,44.47,524.06,66.32z M507.6,69.07c-0.06-12.94-5.05-21.15-12.76-24.1
		c-10.37-3.97-21.16-0.37-26.19,8.72c-5.61,10.13-3.28,24.42,5.06,30.61c7.08,5.25,14.88,5.76,22.55,1.99
		C504.47,82.26,507.5,74.79,507.6,69.07z"/>
	<path class="st1" d="M177.99,39.07c7.19-8.07,15.69-9.95,24.95-9.84c16.14,0.2,27.37,10.27,28.08,26.42
		c0.64,14.55,0.2,29.15,0.32,43.73c0.02,2.11-0.92,2.47-2.71,2.43c-3.61-0.09-7.24-0.18-10.85,0.03c-2.57,0.14-3.11-0.89-3.09-3.24
		c0.09-12.46,0.11-24.92-0.01-37.38c-0.08-8.4-4.45-14.49-11.26-16.19c-13.97-3.49-25.13,4.94-25.39,19.43
		c-0.2,11.21-0.15,22.43,0.01,33.65c0.04,2.92-0.71,4.04-3.72,3.73c-4.17-0.43-9.63,1.72-12.22-0.88c-2.41-2.42-0.65-7.82-0.66-11.9
		c-0.06-18.44,0.03-36.89-0.09-55.33c-0.02-2.71,0.56-3.84,3.48-3.61c3.22,0.26,6.5,0.25,9.72,0c2.91-0.23,3.81,0.88,3.46,3.61
		C177.84,35.06,177.99,36.44,177.99,39.07z"/>
	<path class="st2" d="M0.98,48.74c0-10.59,0.06-21.18-0.05-31.77c-0.02-2.35,0.48-3.38,3.09-3.21c3.6,0.23,7.23,0.14,10.84,0.02
		c1.95-0.07,2.65,0.59,2.59,2.56c-0.12,3.73,0.05,7.48-0.07,11.21c-0.06,1.93,0.59,2.65,2.56,2.58c3.61-0.12,7.24,0.09,10.84-0.07
		c2.23-0.1,3.22,0.47,3.01,2.87c-0.29,3.33,1.34,7.65-0.62,9.76c-1.98,2.14-6.35,0.61-9.66,0.67c-6.1,0.11-6.1,0.03-6.1,6.09
		c0,8.97-0.03,17.94,0,26.91c0.03,10.25,6.87,14.62,16.17,10.11c2.06-1,2.74-0.7,3.4,1.21c0.64,1.88,1.2,3.84,2.16,5.56
		c1.82,3.28,0.45,5.03-2.56,6.21c-8.02,3.14-16.12,3.42-23.99-0.2C4.88,95.71,1.5,88.95,1.24,80.87
		c-0.34-10.7-0.08-21.42-0.08-32.13C1.1,48.74,1.04,48.74,0.98,48.74z"/>
	<path class="st4" d="M425.25,143.86c-19.7-0.33-36.97-7.44-52.31-19.8c-2.49-2-2.56-3.35-0.13-5.38c2.65-2.22,4.41-6.42,7.51-6.91
		c3.02-0.48,5.33,3.52,8.1,5.36c25.93,17.22,56.18,15.62,79.91-4.41c1.65-1.39,2.6-1.39,3.97,0.12c1.68,1.84,3.52,3.53,5.29,5.29
		c3.35,3.33,3.43,3.42-0.33,6.58C462.3,137.3,444.98,143.58,425.25,143.86z"/>
	<path class="st5" d="M424.18,38.41c5.68-5.67,12.4-8.2,19.9-9.06c5.07-0.58,5.27-0.35,3.99,4.45c-0.25,0.96-0.53,1.92-0.72,2.89
		c-0.92,4.69-1.9,8.2-8.33,8.94c-8.41,0.98-13.75,8.64-13.93,17.5c-0.23,11.59-0.22,23.18-0.06,34.77c0.04,3.15-0.88,4.18-3.98,3.92
		c-3.1-0.26-6.25-0.25-9.35,0c-2.84,0.22-3.6-0.77-3.57-3.55c0.13-14.83,0.06-29.66,0.06-44.49c0-6.61,0.11-13.21-0.05-19.82
		c-0.07-2.83,0.62-4.16,3.74-3.88c2.85,0.26,5.75,0.25,8.6,0c3.08-0.26,4.05,0.99,3.74,3.87C424.04,35.42,424.18,36.92,424.18,38.41
		z"/>
	<path class="st2" d="M150.02,65.86c0,10.83-0.1,21.66,0.07,32.49c0.05,2.85-0.8,3.68-3.58,3.49c-3.47-0.24-6.98-0.13-10.46-0.03
		c-1.83,0.06-2.7-0.37-2.69-2.44c0.06-22.16,0.06-44.32,0-66.47c0-1.99,0.7-2.6,2.61-2.54c3.73,0.11,7.48,0.16,11.21-0.02
		c2.38-0.11,2.91,0.83,2.89,3.04C149.96,44.2,150.02,55.03,150.02,65.86z"/>
	<path class="st6" d="M151.1,11.48c-0.21,5.86-4.64,10.15-10.29,9.99c-5.79-0.17-10.05-4.61-9.92-10.36
		c0.13-5.63,4.8-10.11,10.38-9.96C147.12,1.3,151.31,5.7,151.1,11.48z"/>
</g>
</svg>
